# xmcd
#
# Track frame offsets:
#	150
#	20818
#	41269
#	59851
#	80666
#	98902
#	118275
#	156177
#	175384
#	194177
#	216090
#	236903
#
# Disc length: 3440 seconds
#
# Revision: 0
# Processed by: cddbd v1.5.2PL0 Copyright (c) Steve Scherf et al.
# Submitted via: dBpowerAMP V4.0
#
DISCID=ba0d6e0c
DTITLE=Various Artist - Guc Nga Vi Yeu
DYEAR=1900
DGENRE=Ethnic
TTITLE0=Tam Doan - Guc Nga Vi Yeu
TTITLE1=Tam Doan - Doi Con Gai
TTITLE2=Tam Doan - Yeu Nguoi Phu Toi
TTITLE3=Tam Doan - Ngam Ngui Xa Nhau
TTITLE4=Tam Doan - Bai Tinh Ca Mau Tim
TTITLE5=Tam Doan - Pho Vang Em Roi
TTITLE6=Tam Doan - Manh Quynh - Tan Co Go Cua
TTITLE7=Tam Doan - Sau Ly Biet
TTITLE8=Tam Doan - Yeu Lam
TTITLE9=Tam Doan - Tim Dau Nguoi Yeu
TTITLE10=Tam Doan - Manh Quynh - Tinh Yeu Mua Hen
TTITLE11=Tam Doan - Roi 30 Nam Qua
EXTD=
EXTT0=
EXTT1=
EXTT2=
EXTT3=
EXTT4=
EXTT5=
EXTT6=
EXTT7=
EXTT8=
EXTT9=
EXTT10=
EXTT11=
PLAYORDER=
